<svg width="87" height="14" viewBox="0 0 87 14" fill="none" xmlns="http://www.w3.org/2000/svg">
<g clip-path="url(#clip0_334_3609)">
<path d="M82.1893 0.414801L80.9552 3.79477L77.9084 12.1992L77.6616 12.8795H72.6819L74.0178 9.68466L68.4642 0.414801H73.4671L75.7919 5.26802L77.2019 0.414801H82.1893ZM56.3574 8.89019V0.414801H51.7032V6.54688L53.7735 12.2547L54.0033 12.8872H60.4208V8.89019H56.3574ZM36.6453 12.8795H41.6312L42.1618 11.2335H46.5338L47.0644 12.8795H52.0333L47.5072 0.414801H41.1653L36.6453 12.8795ZM43.342 7.57738L44.1565 5.05204H44.5221L45.3474 7.57738H43.342ZM34.1709 0.414801L32.7609 5.26802L30.4361 0.414801H26.7337C28.3319 1.91735 29.1742 4.06937 29.1742 6.64716V6.65641L30.9883 9.68466L29.6509 12.8795H34.6383L34.8851 12.1992L37.9319 3.79477L39.1583 0.414801H34.1709ZM27.3214 6.64716C27.3214 11.0175 24.4968 13.2945 20.2576 13.2945C16.7928 13.2945 14.272 11.7719 13.4699 8.82077C14.3421 7.71957 14.806 6.35022 14.7827 4.9456C14.7908 4.12022 14.6556 3.29968 14.3831 2.52053C15.5926 0.849831 17.6597 -0.00634766 20.2591 -0.00634766C24.4968 -0.000177007 27.3214 2.27679 27.3214 6.64716ZM22.5685 6.64716C22.5685 4.98571 21.8542 3.98761 20.2545 3.98761C18.6548 3.98761 17.9405 5.0181 17.9405 6.64716C17.9405 8.27621 18.6548 9.30516 20.2545 9.30516C21.8542 9.30516 22.5685 8.27466 22.5685 6.64716ZM-0.00683594 12.8795H4.652V9.88829H5.86608L7.79441 12.8795H13.1937L10.3352 8.94109C11.83 8.25924 12.9268 6.97883 12.9268 4.95177C12.9268 1.79394 10.7841 0.414801 8.02427 0.414801H-0.00683594V12.8795ZM7.27299 4.40412C7.85457 4.40412 8.25258 4.63552 8.25258 5.23408C8.25258 5.83263 7.85457 6.06557 7.27299 6.06557H4.65046V4.40412H7.27299ZM66.2983 0.414801H58.332V4.40412H62.3939V12.8795H67.0465V4.40412H68.6926L66.8738 1.36663L66.2983 0.414801Z" fill="white"/>
<path d="M86.9992 6.2757L84.5989 12.8582H79.6191L82.0195 6.2757H86.9992Z" fill="#35FF86"/>
</g>
<defs>
<clipPath id="clip0_334_3609">
<rect width="87" height="13.2947" fill="white"/>
</clipPath>
</defs>
</svg>
