<svg width="87" height="14" viewBox="0 0 87 14" fill="none" xmlns="http://www.w3.org/2000/svg">
<g clip-path="url(#clip0_361_28327)">
<path d="M49.1248 3.24794L48.3872 5.26815L46.5661 10.2915L46.4186 10.6981H43.4422L44.2407 8.78854L40.9213 3.24794H43.9116L45.3011 6.14871L46.1438 3.24794H49.1248ZM33.6851 8.31369V3.24794H30.9033V6.91309L32.1406 10.3247L32.278 10.7027H36.1138V8.31369H33.6851ZM21.9031 10.6981H24.8832L25.2004 9.71428H27.8135L28.1306 10.6981H31.1006L28.3953 3.24794H24.6047L21.9031 10.6981ZM25.9057 7.52902L26.3926 6.01962H26.6111L27.1044 7.52902H25.9057ZM20.4241 3.24794L19.5814 6.14871L18.1919 3.24794H15.9789C16.9342 4.14601 17.4376 5.43228 17.4376 6.97302V6.97855L18.5219 8.78854L17.7225 10.6981H20.7035L20.851 10.2915L22.6721 5.26815L23.4051 3.24794H20.4241ZM16.3302 6.97302C16.3302 9.58519 14.642 10.9461 12.1082 10.9461C10.0372 10.9461 8.5306 10.0361 8.05113 8.27219C8.5725 7.61401 8.84977 6.79554 8.8358 5.956C8.84066 5.46267 8.75985 4.97223 8.59699 4.50654C9.31988 3.50795 10.5554 2.99622 12.1091 2.99622C14.642 2.9999 16.3302 4.36085 16.3302 6.97302ZM13.4894 6.97302C13.4894 5.97997 13.0625 5.38341 12.1063 5.38341C11.1501 5.38341 10.7232 5.99934 10.7232 6.97302C10.7232 7.94671 11.1501 8.56172 12.1063 8.56172C13.0625 8.56172 13.4894 7.94579 13.4894 6.97302ZM-0.00390625 10.6981H2.78069V8.91025H3.50634L4.65891 10.6981H7.88609L6.17752 8.34411C7.07099 7.93657 7.72657 7.17126 7.72657 5.95969C7.72657 4.07225 6.44584 3.24794 4.79629 3.24794H-0.00390625V10.6981ZM4.34725 5.63236C4.69487 5.63236 4.93276 5.77067 4.93276 6.12842C4.93276 6.48618 4.69487 6.62541 4.34725 6.62541H2.77977V5.63236H4.34725ZM39.6268 3.24794H34.8653V5.63236H37.2931V10.6981H40.074V5.63236H41.0578L39.9707 3.81684L39.6268 3.24794Z" fill="#050505"/>
<path d="M52 6.75098L50.5653 10.6854H47.5889L49.0236 6.75098H52Z" fill="#35FF86"/>
</g>
<defs>
<clipPath id="clip0_361_28327">
<rect width="52" height="7.94624" fill="white" transform="translate(0 3)"/>
</clipPath>
</defs>
</svg>
